<svg width="128" height="128" viewBox="0 0 128 128" fill="none" xmlns="http://www.w3.org/2000/svg">
<path d="M56.1332 58.7216C55.0004 58.7385 53.9197 59.2004 53.1246 60.0074C52.3295 60.8145 51.8838 61.9019 51.8838 63.0349C51.8838 64.1678 52.3295 65.2553 53.1246 66.0623C53.9197 66.8694 55.0004 67.3313 56.1332 67.3482V58.7216ZM94.9535 67.3511C96.0863 67.3342 97.167 66.8723 97.9621 66.0652C98.7572 65.2582 99.2028 64.1707 99.2028 63.0378C99.2028 61.9048 98.7572 60.8174 97.9621 60.0103C97.167 59.2033 96.0863 58.7414 94.9535 58.7245V67.3511ZM60.4498 24.215C60.4329 23.0822 59.971 22.0016 59.164 21.2065C58.3569 20.4114 57.2695 19.9657 56.1365 19.9657C55.0036 19.9657 53.9161 20.4114 53.1091 21.2065C52.302 22.0016 51.8401 23.0822 51.8232 24.215H60.4498ZM51.8203 101.855C51.8118 102.427 51.917 102.994 52.13 103.525C52.3429 104.056 52.6593 104.539 53.0606 104.947C53.462 105.354 53.9404 105.678 54.4679 105.898C54.9955 106.119 55.5617 106.233 56.1336 106.233C56.7056 106.233 57.2718 106.119 57.7993 105.898C58.3269 105.678 58.8053 105.354 59.2067 104.947C59.608 104.539 59.9244 104.056 60.1373 103.525C60.3502 102.994 60.4555 102.427 60.447 101.855H51.8203ZM56.1332 67.3511H94.9535V58.7216H56.1332V67.3511ZM51.8203 24.215V101.855H60.4498V24.215H51.8203ZM38.0175 28.5279H74.2488V19.9012H38.0175V28.5279ZM90.6397 44.9188V81.15H99.2663V44.9188H90.6397ZM74.2488 97.5409H38.0175V106.168H74.2488V97.5409ZM21.6266 81.15V44.9188H13V81.15H21.6266ZM38.0175 97.5409C34.3226 97.5409 31.8115 97.5409 29.8702 97.3783C28.6533 97.3525 27.4532 97.0883 26.3379 96.6006L22.4207 104.287C24.5352 105.293 26.8287 105.867 29.1676 105.977C31.542 106.169 34.4612 106.169 38.0223 106.169L38.0175 97.5409ZM13 81.15C13 84.7025 13 87.6265 13.1925 90.0048C13.3026 92.3436 13.8771 94.6371 14.8826 96.7517L22.567 92.8306C22.079 91.7154 21.8145 90.5153 21.7883 89.2983C21.6295 87.357 21.6266 84.845 21.6266 81.15H13ZM26.3379 96.6006C24.7147 95.7736 23.394 94.4538 22.567 92.8306L14.8807 96.7469C16.5349 99.9933 19.1743 102.633 22.4207 104.287L26.3379 96.6006ZM90.6397 81.15C90.6397 84.845 90.6397 87.356 90.477 89.2983C90.4513 90.5153 90.187 91.7153 89.6994 92.8306L97.3856 96.7469C98.3912 94.6324 98.9657 92.3388 99.0757 90C99.2682 87.6255 99.2682 84.7064 99.2682 81.1452L90.6397 81.15ZM74.2488 106.168C77.8013 106.168 80.7253 106.168 83.1035 105.975C85.4424 105.865 87.7359 105.291 89.8505 104.285L85.9293 96.6006C84.8141 97.0883 83.614 97.3525 82.3971 97.3783C80.4558 97.5371 77.9437 97.5409 74.2488 97.5409V106.168ZM89.6994 92.8306C88.8724 94.4539 87.5526 95.7736 85.9293 96.6006L89.8456 104.287C93.092 102.633 95.7315 99.9933 97.3856 96.7469L89.6994 92.8306ZM74.2488 28.5279C77.9437 28.5279 80.4548 28.5279 82.3971 28.6896C83.6141 28.7157 84.8142 28.9802 85.9293 29.4682L89.8456 21.7819C87.7313 20.7772 85.4381 20.2034 83.0997 20.0937C80.7253 19.9012 77.8061 19.9012 74.2449 19.9012L74.2488 28.5279ZM99.2663 44.9188C99.2663 41.3663 99.2663 38.4423 99.0738 36.064C98.9639 33.7252 98.3894 31.4316 97.3837 29.3171L89.6994 33.2382C90.187 34.3535 90.4513 35.5535 90.477 36.7705C90.6358 38.7118 90.6397 41.2248 90.6397 44.9188H99.2663ZM85.9293 29.4682C87.5526 30.2952 88.8723 31.615 89.6994 33.2382L97.3856 29.3219C95.7315 26.0755 93.092 23.4361 89.8456 21.7819L85.9293 29.4682ZM38.0175 19.9012C34.4631 19.9012 31.541 19.9012 29.1695 20.0937C26.8307 20.2038 24.5371 20.7783 22.4226 21.7838L26.337 29.4682C27.4522 28.9802 28.6522 28.7157 29.8692 28.6896C31.8105 28.5308 34.3236 28.5279 38.0175 28.5279V19.9012ZM21.6266 44.9188C21.6266 41.2238 21.6266 38.7127 21.7883 36.7714C21.8145 35.5544 22.079 34.3534 22.567 33.2382L14.8807 29.3219C13.8755 31.4372 13.3016 33.7314 13.1925 36.0708C13 38.4452 13 41.3644 13 44.9255L21.6266 44.9188ZM22.4207 21.7819C19.1742 23.436 16.5348 26.0755 14.8807 29.3219L22.567 33.2382C23.394 31.615 24.7137 30.2952 26.337 29.4682L22.4207 21.7819Z" fill="#DFE3EC"/>
<path opacity="0.8" d="M79.7183 121H89.5432C96.0537 120.992 102.295 118.402 106.899 113.798C111.502 109.195 114.091 102.953 114.099 96.4425V58.7454C114.099 57.4436 113.582 56.1951 112.661 55.2745C111.741 54.354 110.492 53.8368 109.19 53.8368C107.888 53.8368 106.64 54.354 105.719 55.2745C104.799 56.1951 104.282 57.4436 104.282 58.7454V96.4425C104.282 98.3779 103.901 100.294 103.16 102.083C102.419 103.871 101.334 105.495 99.9652 106.864C98.5965 108.232 96.9716 109.317 95.1834 110.058C93.3952 110.798 91.4786 111.179 89.5432 111.178H79.7183C78.4158 111.178 77.1667 111.695 76.2457 112.616C75.3247 113.537 74.8073 114.787 74.8073 116.089C74.8073 117.391 75.3247 118.641 76.2457 119.562C77.1667 120.483 78.4158 121 79.7183 121Z" fill="#DFE3EC"/>
<path opacity="0.7" d="M82.7828 7H30.0067C27.7396 7 25.9017 8.83784 25.9017 11.1049C25.9017 13.372 27.7396 15.2099 30.0067 15.2099H82.7828C85.0499 15.2099 86.8878 13.372 86.8878 11.1049C86.8878 8.83784 85.0499 7 82.7828 7Z" fill="#DFE3EC"/>
</svg>
