<svg width="128" height="128" viewBox="0 0 128 128" fill="none" xmlns="http://www.w3.org/2000/svg">
    <path d="M56.4811 59.8786C55.3129 59.8948 54.1984 60.3366 53.3785 61.1086C52.5585 61.8805 52.0989 62.9207 52.0989 64.0044C52.0989 65.0881 52.5585 66.1282 53.3785 66.9002C54.1984 67.6722 55.3129 68.114 56.4811 68.1302V59.8786ZM96.5145 68.1329C97.6827 68.1167 98.7972 67.6749 99.6171 66.903C100.437 66.131 100.897 65.0908 100.897 64.0071C100.897 62.9235 100.437 61.8833 99.6171 61.1113C98.7972 60.3394 97.6827 59.8976 96.5145 59.8814V68.1329ZM60.9327 26.8724C60.9152 25.7888 60.4389 24.7551 59.6066 23.9946C58.7743 23.2341 57.6529 22.8078 56.4845 22.8078C55.3162 22.8078 54.1948 23.2341 53.3625 23.9946C52.5302 24.7551 52.0539 25.7888 52.0364 26.8724H60.9327ZM52.0335 101.136C52.0246 101.683 52.1332 102.227 52.3528 102.734C52.5724 103.242 52.8986 103.704 53.3125 104.094C53.7264 104.484 54.2198 104.793 54.7638 105.004C55.3079 105.216 55.8918 105.324 56.4816 105.324C57.0714 105.324 57.6553 105.216 58.1993 105.004C58.7434 104.793 59.2367 104.484 59.6506 104.094C60.0645 103.704 60.3908 103.242 60.6104 102.734C60.8299 102.227 60.9385 101.683 60.9297 101.136H52.0335ZM56.4811 68.1329H96.5145V59.8786H56.4811V68.1329ZM52.0335 26.8724V101.136H60.9327V26.8724H52.0335ZM37.7993 30.9977H75.1628V22.7461H37.7993V30.9977ZM92.0659 46.6759V81.3319H100.962V46.6759H92.0659ZM75.1628 97.0102H37.7993V105.262H75.1628V97.0102ZM20.8962 81.3319V46.6759H12V81.3319H20.8962ZM37.7993 97.0102C33.9889 97.0102 31.3994 97.0102 29.3974 96.8546C28.1424 96.8299 26.9048 96.5772 25.7547 96.1107L21.7151 103.463C23.8956 104.425 26.2609 104.974 28.6728 105.079C31.1215 105.264 34.1319 105.264 37.8043 105.264L37.7993 97.0102ZM12 81.3319C12 84.73 12 87.5268 12.1985 89.8017C12.312 92.0388 12.9045 94.2326 13.9414 96.2553L21.8659 92.5046C21.3627 91.4379 21.0899 90.29 21.063 89.1259C20.8992 87.269 20.8962 84.8662 20.8962 81.3319H12ZM25.7547 96.1107C24.0808 95.3197 22.7188 94.0573 21.8659 92.5046L13.9394 96.2507C15.6453 99.3559 18.3672 101.881 21.7151 103.463L25.7547 96.1107ZM92.0659 81.3319C92.0659 84.8662 92.0659 87.2681 91.8982 89.1259C91.8716 90.29 91.5991 91.4379 91.0962 92.5046L99.0227 96.2507C100.06 94.2281 100.652 92.0342 100.766 89.7971C100.964 87.5259 100.964 84.7336 100.964 81.3273L92.0659 81.3319ZM75.1628 105.262C78.8263 105.262 81.8417 105.262 84.2943 105.078C86.7062 104.972 89.0714 104.423 91.252 103.461L87.2084 96.1107C86.0583 96.5772 84.8207 96.8299 83.5657 96.8546C81.5638 97.0065 78.9732 97.0102 75.1628 97.0102V105.262ZM91.0962 92.5046C90.2434 94.0574 88.8824 95.3197 87.2084 96.1107L91.2471 103.463C94.5949 101.881 97.3168 99.3559 99.0227 96.2507L91.0962 92.5046ZM75.1628 30.9977C78.9732 30.9977 81.5628 30.9977 83.5657 31.1523C84.8208 31.1773 86.0583 31.4304 87.2084 31.8971L91.2471 24.545C89.0666 23.584 86.7018 23.0351 84.2903 22.9302C81.8417 22.7461 78.8313 22.7461 75.1589 22.7461L75.1628 30.9977ZM100.962 46.6759C100.962 43.2779 100.962 40.481 100.764 38.2062C100.65 35.969 100.058 33.7752 99.0207 31.7526L91.0962 35.5032C91.5991 36.57 91.8716 37.7179 91.8982 38.8819C92.062 40.7388 92.0659 43.1426 92.0659 46.6759H100.962ZM87.2084 31.8971C88.8824 32.6882 90.2434 33.9505 91.0962 35.5032L99.0227 31.7572C97.3168 28.652 94.5949 26.1273 91.2471 24.545L87.2084 31.8971ZM37.7993 22.7461C34.1338 22.7461 31.1205 22.7461 28.6748 22.9302C26.2629 23.0355 23.8977 23.585 21.7171 24.5469L25.7537 31.8971C26.9038 31.4304 28.1414 31.1773 29.3964 31.1523C31.3984 31.0004 33.9899 30.9977 37.7993 30.9977V22.7461ZM20.8962 46.6759C20.8962 43.1416 20.8962 40.7397 21.063 38.8828C21.0899 37.7187 21.3627 36.5699 21.8659 35.5032L13.9394 31.7572C12.9029 33.7805 12.3111 35.975 12.1985 38.2126C12 40.4838 12 43.2761 12 46.6824L20.8962 46.6759ZM21.7151 24.545C18.3672 26.1272 15.6453 28.6519 13.9394 31.7572L21.8659 35.5032C22.7188 33.9505 24.0798 32.6882 25.7537 31.8971L21.7151 24.545Z" fill="#DFE3EC"/>
    <path fill-rule="evenodd" clip-rule="evenodd" d="M116.156 75.4493H105.844V89.3188C105.844 100.677 95.9171 109.884 83.6719 109.884H82.125V119.449H83.6719C101.612 119.449 116.156 105.959 116.156 89.3188V75.4493Z" fill="#A4AAB8"/>
    <path d="M105.844 60.1449C105.844 57.5036 108.152 55.3623 111 55.3623C113.848 55.3623 116.156 57.5036 116.156 60.1449V90.7536H105.844V60.1449Z" fill="#A4AAB8"/>
    <path d="M81.0938 119.449C78.246 119.449 75.9375 117.308 75.9375 114.667C75.9375 112.025 78.246 109.884 81.0938 109.884H85.2188V119.449H81.0938Z" fill="#A4AAB8"/>
    <rect x="24.5938" y="8.34784" width="63" height="10.2029" rx="5.10145" fill="#A4AAB8"/>
</svg>
